<?xml version="1.0" standalone="no"?>
<!DOCTYPE svg PUBLIC "-//W3C//DTD SVG 20010904//EN"
 "http://www.w3.org/TR/2001/REC-SVG-20010904/DTD/svg10.dtd">
<svg version="1.0" xmlns="http://www.w3.org/2000/svg"
 width="400.000000pt" height="400.000000pt" viewBox="0 0 400.000000 400.000000"
 preserveAspectRatio="xMidYMid meet">
<metadata>
Created by potrace 1.11, written by Peter Selinger 2001-2013
</metadata>
<g transform="translate(0.000000,400.000000) scale(0.100000,-0.100000)"
fill="#000000" stroke="none">
<path d="M415 3938 c-4 -35 -5 -92 -3 -127 l3 -64 70 -23 c38 -12 70 -22 71
-21 1 1 5 68 9 150 l7 147 -75 0 -75 0 -7 -62z"/>
<path d="M1616 3988 c3 -5 13 -7 21 -4 9 4 17 -1 20 -15 3 -12 11 -18 19 -15
8 3 14 1 14 -4 0 -6 -5 -10 -12 -10 -6 0 -3 -7 8 -16 10 -8 13 -12 5 -8 -11 5
-13 3 -8 -10 4 -10 7 -29 7 -44 0 -25 1 -25 15 -6 13 17 14 18 15 1 0 -16 2
-16 23 -2 13 8 26 13 28 11 3 -3 4 10 4 29 -1 19 2 32 6 29 5 -3 11 8 15 23 3
15 7 34 10 41 4 15 -38 16 -53 1 -7 -7 -17 -8 -29 -1 -24 12 -115 12 -108 0z
m130 -52 c15 6 17 4 7 -6 -14 -15 -43 -7 -43 12 0 11 2 11 8 0 5 -7 16 -10 28
-6z"/>
<path d="M1827 3993 c-9 -14 -9 -67 -1 -93 7 -23 9 -20 21 25 7 28 13 56 13
63 0 13 -26 17 -33 5z"/>
<path d="M2090 3943 c-6 -32 -41 -186 -77 -343 -36 -157 -66 -290 -67 -297 -2
-14 -100 -83 -119 -83 -7 0 -31 -17 -53 -39 -23 -21 -52 -42 -65 -46 -13 -4
-77 -38 -142 -76 -65 -38 -126 -69 -136 -69 -22 0 -117 -150 -189 -297 -28
-56 -52 -108 -55 -115 -4 -10 -7 -11 -18 0 -18 16 -29 15 -29 -3 0 -8 9 -15
20 -15 28 0 25 -20 -14 -98 -18 -37 -39 -85 -46 -107 -7 -22 -14 -43 -17 -47
-2 -4 -38 6 -81 21 -42 16 -142 52 -222 80 -201 73 -250 93 -244 102 2 4 -1
11 -7 15 -8 4 -9 3 -5 -4 4 -7 1 -12 -10 -12 -15 0 -16 12 -9 118 l7 117 -31
34 c-17 19 -31 39 -31 44 0 5 -21 28 -46 51 -39 36 -47 50 -51 90 -5 44 -7 46
-24 30 -12 -11 -16 -25 -13 -43 7 -33 -17 -61 -50 -61 -21 0 -75 -36 -65 -43
2 -2 24 -9 49 -15 42 -10 42 -11 7 -7 -42 4 -48 -8 -15 -37 26 -23 49 -20 63
8 7 15 16 18 35 14 l25 -6 -1 -147 c-1 -81 -5 -158 -8 -172 -10 -40 -34 -19
-41 38 l-7 51 -13 -30 c-6 -16 -9 -38 -7 -48 4 -14 1 -18 -9 -14 -8 3 -30 10
-49 16 -19 6 -75 24 -124 41 -49 17 -93 28 -97 25 -5 -3 -9 -57 -9 -121 l0
-115 27 6 c103 23 146 17 109 -13 -10 -9 -104 -30 -133 -31 -2 0 -3 -22 -3
-50 0 -42 3 -50 18 -50 11 0 27 9 38 21 16 17 16 22 4 29 -8 6 -10 10 -5 11 6
0 2 3 -7 7 -11 5 -14 12 -9 20 7 12 12 12 32 0 13 -7 27 -17 30 -22 4 -5 19
-6 33 -2 16 4 26 2 26 -5 0 -6 6 -17 14 -24 12 -12 15 -10 20 15 4 22 10 28
21 24 9 -4 14 -12 12 -19 -3 -6 1 -12 9 -12 7 0 11 5 7 10 -5 9 15 5 67 -15
20 -8 22 -11 10 -19 -11 -8 -5 -9 22 -4 29 4 42 1 57 -14 10 -10 33 -22 49
-26 17 -3 33 -14 35 -23 4 -16 5 -16 6 0 1 16 4 16 43 2 24 -8 46 -21 51 -29
5 -10 16 -13 32 -9 14 3 66 -9 137 -34 62 -22 141 -48 176 -58 56 -15 63 -20
58 -38 -3 -12 -6 -24 -6 -27 0 -6 -105 -79 -114 -79 -2 0 -6 9 -9 21 -4 16 -3
18 8 9 17 -14 32 7 16 23 -6 6 -11 19 -11 29 0 20 -11 23 -27 7 -8 -8 -13 -8
-17 0 -4 6 -16 11 -27 11 -10 0 -19 7 -19 15 0 17 -67 48 -88 40 -8 -3 -21 3
-28 14 -17 23 -58 36 -50 15 6 -15 -29 -38 -44 -29 -6 3 -10 1 -10 -5 0 -6
-10 -15 -22 -21 -23 -10 -76 -45 -114 -77 -16 -12 -19 -21 -12 -29 7 -9 4 -18
-13 -32 -19 -16 -25 -17 -27 -5 -4 17 -43 19 -59 3 -9 -9 -16 -8 -28 5 -9 9
-20 16 -25 16 -20 0 -40 -13 -40 -27 0 -11 -10 -13 -43 -10 -24 3 -50 1 -58
-4 -8 -5 -9 -9 -3 -9 12 0 12 -55 0 -67 -3 -3 -6 -14 -6 -24 0 -10 -9 -21 -20
-24 -11 -3 -20 -11 -20 -17 0 -6 -12 -8 -29 -5 -25 5 -28 3 -24 -13 3 -11 0
-20 -6 -20 -14 0 -14 -37 0 -45 6 -4 9 0 7 11 -3 19 -2 19 61 9 8 -1 17 -7 19
-13 4 -14 -10 -16 -24 -3 -5 6 -18 2 -34 -11 -14 -11 -18 -19 -10 -18 8 1 23
2 34 1 16 -1 17 -3 5 -18 -11 -13 -12 -17 -1 -21 7 -2 18 -11 25 -19 7 -7 23
-25 36 -39 26 -29 20 -45 -10 -25 -19 11 -20 10 -14 -8 5 -16 2 -21 -12 -21
-32 0 -42 -18 -31 -54 8 -26 15 -32 32 -29 15 3 30 -5 49 -26 21 -24 34 -30
53 -27 16 3 27 0 31 -10 4 -11 9 -12 19 -3 12 10 14 1 14 -48 0 -55 22 -144
42 -169 5 -8 -14 -24 -59 -50 -99 -58 -150 -139 -104 -164 28 -15 33 -13 26
10 -9 29 70 120 124 145 l41 18 44 -41 c24 -22 62 -52 84 -66 59 -37 407 -136
479 -136 56 0 65 -15 13 -22 -21 -2 -26 -11 -35 -53 -6 -27 -17 -62 -24 -77
-11 -22 -16 -24 -27 -14 -18 18 -11 58 15 95 13 18 20 39 17 48 -6 14 -9 13
-29 -6 -29 -26 -40 -27 -32 -2 8 25 -9 35 -25 16 -17 -21 -30 -19 -30 5 0 23
-18 27 -26 5 -4 -8 -12 -15 -20 -15 -8 0 -14 7 -14 15 0 20 -17 19 -28 -1 -12
-21 -32 -10 -32 17 0 23 -18 26 -26 4 -8 -19 -34 -19 -34 0 0 20 -17 19 -29
-2 -8 -14 -12 -15 -25 -4 -9 7 -16 23 -16 34 0 20 -1 20 -17 5 -14 -15 -15
-22 -5 -44 7 -14 21 -28 32 -31 11 -3 20 -9 20 -14 0 -5 10 -9 22 -9 12 0 41
-9 64 -20 33 -16 41 -25 37 -40 -4 -15 0 -20 16 -20 21 0 21 -1 3 -20 -10 -10
-33 -26 -52 -34 -19 -8 -46 -26 -59 -40 -14 -14 -30 -26 -38 -26 -20 0 -15
-17 7 -23 11 -3 18 0 17 6 -1 6 6 13 16 15 15 3 17 -1 11 -25 -4 -15 -10 -32
-14 -38 -3 -5 -7 -23 -8 -40 -2 -33 -16 -52 -26 -36 -4 6 -2 11 3 11 23 0 10
18 -16 23 -18 3 -31 0 -40 -11 -10 -14 -14 -15 -22 -3 -7 11 -10 9 -16 -9 -5
-17 -3 -27 9 -35 9 -7 16 -17 16 -23 0 -5 7 -12 15 -16 8 -3 15 -1 15 5 0 6 9
8 20 4 15 -5 18 -3 14 9 -4 11 0 14 14 11 17 -3 31 10 36 35 4 16 19 30 31 28
8 -2 14 0 14 5 2 22 0 28 -8 23 -12 -8 -3 32 17 70 11 23 27 35 56 44 69 21
101 33 107 43 4 5 15 4 27 -2 11 -6 30 -11 41 -11 12 0 21 -3 22 -7 0 -5 3
-44 5 -87 6 -100 32 -156 72 -156 28 0 142 17 177 26 16 4 17 3 5 -5 -11 -8
-2 -11 37 -11 28 0 55 5 58 10 5 8 12 7 22 -2 14 -11 15 -10 9 10 -6 18 -4 21
10 15 15 -5 16 -1 10 41 -6 36 -5 46 4 41 9 -5 10 -1 6 12 -8 26 3 35 101 82
l79 39 22 -42 c25 -46 28 -72 10 -79 -8 -4 -5 -8 9 -12 23 -7 49 -57 38 -75
-3 -6 -1 -9 6 -8 7 2 13 -2 14 -9 0 -19 16 -28 24 -14 6 9 13 6 29 -14 11 -14
22 -30 24 -35 2 -5 44 -17 93 -27 50 -9 82 -19 73 -21 -10 -2 -18 -12 -18 -23
0 -10 -7 -19 -15 -19 -8 0 -15 -4 -15 -10 0 -5 6 -10 14 -10 11 0 12 -5 3 -25
-8 -18 -18 -24 -31 -21 -19 5 -46 -14 -46 -33 0 -5 9 -13 20 -16 11 -3 20 -12
20 -20 0 -21 43 -27 57 -8 17 23 27 10 13 -16 -15 -29 -4 -44 21 -28 15 9 18
18 14 37 l-7 25 20 -23 c11 -12 26 -22 34 -22 22 0 29 -11 17 -26 -20 -25 2
-34 81 -34 70 0 79 2 73 17 -5 13 -2 15 15 11 12 -4 22 -2 22 3 0 5 -7 9 -15
9 -8 0 -15 5 -15 11 0 6 6 9 13 6 16 -6 57 10 57 22 0 5 -9 11 -20 14 -11 3
-20 12 -20 20 0 8 -7 17 -15 21 -9 3 -15 0 -15 -9 0 -21 -19 -28 -36 -14 -10
8 -18 9 -22 2 -8 -11 -72 -14 -72 -2 0 14 -40 17 -51 3 -18 -22 -27 -17 -31
21 -2 21 1 40 10 48 11 12 11 17 -3 31 -9 9 -20 16 -25 16 -15 0 -22 -40 -10
-55 15 -19 -4 -29 -30 -15 -21 11 -27 30 -10 30 5 0 12 16 16 35 4 25 12 35
24 35 28 0 51 -11 44 -21 -10 -17 7 -31 22 -18 11 9 12 14 3 20 -8 4 -4 9 10
14 11 3 21 11 21 16 0 5 49 9 111 9 l112 0 -7 -31 c-3 -17 -6 -40 -6 -50 0
-11 -7 -19 -16 -19 -13 0 -15 -6 -9 -27 9 -37 12 -39 33 -20 10 10 23 17 28
17 5 0 20 9 34 20 14 11 37 20 51 20 37 0 56 43 34 76 -15 23 -14 24 9 24 27
0 109 24 139 40 25 15 64 2 71 -23 3 -13 -5 -44 -19 -75 -14 -30 -22 -58 -19
-63 3 -5 25 -9 50 -9 26 0 107 -20 197 -50 83 -27 172 -54 196 -59 l44 -9 -7
46 c-20 137 -20 149 5 181 17 22 33 30 56 30 43 1 63 24 63 72 0 38 12 57 56
90 49 35 123 191 194 409 23 69 52 143 64 165 13 22 27 55 31 72 3 18 10 35
14 37 4 3 37 -15 73 -38 35 -24 96 -63 134 -86 38 -24 72 -48 76 -54 4 -6 8
-7 8 -1 0 6 3 6 8 -1 4 -6 55 -43 115 -83 96 -64 107 -69 107 -49 -1 19 -31
42 -151 118 -199 126 -279 187 -303 233 -18 34 -19 42 -7 70 8 18 17 64 21
103 3 38 10 75 14 82 4 7 3 12 -1 12 -13 0 -43 90 -43 128 0 18 -7 43 -16 57
-15 22 -14 24 10 40 36 24 112 45 160 45 68 -1 120 -15 304 -87 9 -4 12 12 12
61 l0 65 -46 -19 c-25 -11 -63 -20 -85 -20 -34 0 -39 3 -39 23 0 21 8 26 56
37 79 19 153 90 94 90 -10 0 -24 8 -30 17 -8 14 -10 9 -5 -23 7 -45 -10 -69
-39 -58 -48 18 -48 120 -1 214 19 39 38 70 42 70 4 0 17 -10 30 -22 l23 -21 0
246 c0 136 -3 247 -6 247 -4 0 -22 -14 -42 -31 -19 -17 -63 -44 -96 -59 -52
-24 -146 -68 -368 -174 -28 -14 -69 -23 -105 -25 -79 -3 -89 -7 -103 -42 -23
-55 -70 -101 -70 -69 0 6 -9 23 -20 38 -30 40 -71 274 -51 286 7 5 11 -2 12
-16 0 -22 1 -22 10 -3 7 16 8 13 4 -12 -2 -18 -1 -33 4 -33 11 0 21 52 13 65
-4 5 -5 20 -3 33 3 27 -15 29 -24 2 -12 -38 -28 -9 -22 41 4 29 2 49 -3 49 -6
0 -10 5 -10 11 0 6 -16 29 -35 52 -26 30 -35 50 -35 76 -1 69 -28 153 -58 184
-34 34 -18 42 -138 -72 -57 -54 -87 -74 -150 -100 -44 -17 -104 -45 -134 -61
-103 -58 -225 -112 -260 -117 -45 -6 -77 18 -125 97 -63 103 -92 248 -73 368
6 37 11 76 11 87 0 11 4 40 9 64 8 38 6 47 -12 66 -17 19 -19 26 -10 50 6 16
14 75 19 132 5 68 13 109 23 120 9 10 20 32 26 48 10 29 10 29 11 5 2 -41 13
-70 24 -63 7 4 8 0 2 -13 -13 -33 -35 -107 -35 -118 1 -6 11 8 24 32 17 34 25
41 33 30 14 -17 63 -123 64 -140 1 -7 5 9 9 35 17 97 58 118 145 76 l40 -19
-38 4 c-22 3 -35 1 -32 -5 4 -5 17 -9 31 -9 13 0 23 -5 22 -12 -2 -6 8 -17 22
-24 20 -11 27 -11 40 1 14 13 19 12 41 -2 59 -41 62 -67 14 -116 -28 -29 -44
-37 -73 -38 -35 0 -35 -1 -12 -10 37 -15 66 -3 109 43 55 58 71 49 71 -41 0
-38 4 -72 9 -75 5 -4 7 10 4 32 -3 23 1 53 10 75 15 34 19 37 56 37 34 0 38
-3 34 -19 -3 -12 -11 -17 -19 -14 -8 3 -14 3 -14 -1 0 -3 19 -10 41 -16 33 -9
44 -9 51 2 7 10 12 8 25 -9 22 -32 39 -29 18 3 l-17 27 28 -7 29 -6 -26 15
c-22 12 -115 38 -210 59 -15 3 -53 26 -85 50 -93 69 -191 107 -281 109 -65 2
-77 5 -94 26 -23 29 -25 48 -2 30 15 -13 16 -11 11 15 -9 44 2 63 85 150 l75
79 27 -42 c31 -46 32 -47 54 -27 9 8 32 16 51 17 19 2 49 11 67 21 28 15 32
15 37 1 6 -14 9 -14 27 3 17 16 22 16 29 4 6 -8 10 -26 10 -39 0 -18 4 -22 20
-18 20 5 24 -2 21 -35 -1 -10 2 -18 7 -18 5 0 7 -11 4 -25 -5 -29 0 -31 24 -8
12 13 19 14 21 6 4 -10 12 -9 34 2 25 13 29 13 29 1 0 -8 5 -16 11 -18 6 -2
14 -22 18 -43 l6 -40 23 23 c12 12 27 22 32 22 17 0 11 -28 -7 -39 -16 -9 -16
-10 4 -11 12 0 42 -9 68 -20 26 -11 56 -20 67 -20 20 0 20 -4 14 -67 -7 -82
-38 -188 -62 -214 -15 -17 -19 -18 -34 -4 -15 14 -16 13 -13 -13 3 -19 -5 -40
-27 -70 -30 -42 -30 -43 -8 -37 42 13 66 34 73 64 4 19 14 30 28 33 27 5 87
-9 87 -21 0 -5 6 -9 13 -8 56 2 79 -4 73 -19 -4 -12 -1 -14 14 -9 21 7 167
-32 175 -46 3 -4 -3 -21 -12 -38 -18 -30 -46 -41 -58 -21 -3 5 -12 7 -20 3 -8
-3 -15 -1 -15 5 0 6 -9 8 -20 5 -21 -6 -29 12 -8 19 17 6 0 28 -22 28 -10 0
-20 -7 -24 -15 -3 -8 -11 -13 -18 -11 -7 2 -53 16 -101 31 -71 22 -90 25 -103
15 -8 -7 -12 -21 -9 -31 4 -12 -2 -21 -21 -31 -39 -19 -40 -35 -2 -46 18 -6
104 -31 190 -56 87 -25 166 -46 176 -46 13 0 27 20 49 73 84 196 104 247 99
255 -3 5 -79 31 -170 58 -91 26 -168 54 -170 60 -3 7 6 24 20 39 14 15 28 40
31 56 6 33 9 36 44 42 49 10 54 12 62 32 6 15 0 26 -29 51 -25 22 -35 38 -31
49 4 9 3 14 -3 10 -6 -3 -10 -12 -10 -20 0 -8 -5 -17 -11 -20 -24 -16 25 212
57 262 17 28 18 53 2 53 -22 1 -104 42 -92 47 6 2 9 14 7 27 -4 18 0 26 17 31
64 20 -31 25 -461 23 l-464 -3 -3 -27 c-2 -20 -9 -28 -23 -28 -22 0 -24 -11
-7 -28 9 -9 8 -16 -4 -29 -8 -10 -14 -23 -11 -29 2 -7 -8 -38 -24 -69 -15 -32
-28 -54 -30 -48 -2 6 8 57 22 113 38 156 40 150 -54 150 l-80 0 -11 -57z m793
-8 c-3 -9 -8 -14 -10 -11 -3 3 -2 9 2 15 9 16 15 13 8 -4z m407 -120 c0 -8 -4
-15 -10 -15 -5 0 -7 7 -4 15 4 8 8 15 10 15 2 0 4 -7 4 -15z m-102 -567 c7 -7
28 -11 46 -10 19 2 37 -1 41 -7 3 -6 16 -11 27 -11 29 0 150 -40 166 -55 12
-10 11 -18 -2 -44 -17 -31 -34 -39 -51 -22 -6 6 -30 12 -53 15 -24 3 -49 10
-56 15 -7 6 -16 8 -19 4 -4 -3 -7 5 -7 18 -1 22 -2 22 -14 7 -10 -13 -20 -15
-42 -9 -16 4 -30 13 -30 19 -3 25 -5 27 -13 13 -6 -9 -18 -11 -40 -6 -41 9
-43 15 -19 53 21 33 45 41 66 20z m-77 -224 c46 -15 56 -23 43 -36 -5 -5 -114
19 -123 27 -5 6 10 25 20 25 6 0 32 -7 60 -16z m119 -35 c29 -6 59 -12 67 -13
15 -2 40 -46 27 -46 -29 0 -154 46 -154 57 0 16 -3 16 60 2z m-2455 -829 c8
-13 -5 -13 -25 0 -13 8 -13 10 2 10 9 0 20 -4 23 -10z m233 -16 c18 -8 32 -22
32 -30 0 -24 -31 -78 -39 -67 -3 6 -37 23 -76 38 -95 37 -100 45 -29 46 45 0
54 3 39 10 -19 9 -18 9 2 5 13 -2 26 0 29 5 7 12 5 12 42 -7z m-178 -4 c0 -5
-8 -10 -17 -10 -15 0 -16 2 -3 10 19 12 20 12 20 0z m2512 -155 c-2 -25 0 -45
5 -45 5 0 31 7 57 16 57 20 66 13 66 -51 0 -45 -16 -165 -23 -172 -3 -2 -30
12 -61 32 -67 43 -91 85 -99 173 -5 60 -4 63 21 77 38 20 38 20 34 -30z
m-2586 -13 c4 -9 10 -38 14 -64 5 -37 3 -48 -7 -48 -7 0 -13 -4 -13 -10 0 -5
-12 -10 -26 -10 -22 0 -25 4 -21 22 7 25 -10 61 -24 53 -5 -4 -9 -15 -9 -26 0
-10 -6 -19 -12 -19 -7 0 -3 -7 9 -15 12 -9 20 -22 17 -29 -3 -8 4 -15 20 -18
14 -3 27 0 29 6 2 6 8 7 13 3 10 -10 -55 -72 -115 -111 -26 -15 -56 -37 -67
-48 -19 -17 -25 -18 -43 -6 -33 20 -27 41 9 33 19 -4 30 -3 30 4 0 6 -7 11
-16 11 -12 0 -15 7 -12 24 4 20 0 25 -22 30 -36 7 -42 26 -19 57 l19 24 0 -23
c0 -13 3 -21 8 -19 4 3 16 1 27 -3 27 -9 59 50 51 94 -4 24 0 36 19 54 21 21
26 22 31 8 7 -17 37 -16 73 4 22 11 29 30 11 30 -5 0 -10 4 -10 10 0 15 28 1
36 -18z m-296 -73 c0 -5 -7 -9 -15 -9 -15 0 -20 12 -9 23 8 8 24 -1 24 -14z
m2277 -1 c-3 -8 -6 -5 -6 6 -1 11 2 17 5 13 3 -3 4 -12 1 -19z m-1907 -3 c0
-2 -6 -5 -13 -8 -8 -3 -14 1 -14 8 0 7 6 11 14 8 7 -3 13 -6 13 -8z m-661
-102 c-11 -13 -11 -17 -1 -20 6 -3 12 -10 12 -15 0 -6 -3 -8 -7 -5 -3 4 -14 0
-24 -9 -11 -10 -19 -12 -24 -5 -3 6 1 11 9 11 19 0 21 31 4 48 -9 9 -6 12 16
12 25 0 27 -2 15 -17z m36 -93 c-9 -10 -12 -21 -7 -24 6 -3 12 1 16 9 8 21 24
19 31 -5 5 -16 10 -18 24 -10 17 9 31 5 31 -10 0 -6 -44 -30 -55 -30 -3 0 -5
7 -5 15 0 8 -4 15 -10 15 -12 0 -1 -30 17 -49 12 -11 10 -16 -14 -28 -15 -8
-41 -15 -56 -15 -15 -1 -30 -5 -33 -10 -9 -15 -24 -8 -33 15 -5 14 -4 25 3 29
8 5 7 13 -2 29 -12 18 -12 23 0 30 8 5 15 4 17 -3 2 -6 11 -19 19 -29 15 -17
16 -17 29 8 10 19 10 29 2 39 -16 20 -7 59 14 58 9 -1 18 3 18 10 1 6 3 3 6
-7 3 -10 -3 -27 -12 -37z m125 26 c0 -31 -30 -43 -47 -20 -19 26 -16 36 6 24
26 -14 31 -13 25 5 -4 8 -1 15 5 15 6 0 11 -11 11 -24z m2220 -85 c14 -27 12
-93 -4 -113 -14 -19 -36 -24 -36 -9 0 5 -13 11 -30 15 -23 4 -30 11 -30 30 0
13 -3 37 -6 54 -6 28 -4 31 22 35 60 9 73 7 84 -12z m-2325 -119 c-3 -3 -11 0
-18 7 -9 10 -8 11 6 5 10 -3 15 -9 12 -12z m-39 -39 c-10 -10 -19 5 -10 18 6
11 8 11 12 0 2 -7 1 -15 -2 -18z m2331 -35 c-3 -8 -6 -5 -6 6 -1 11 2 17 5 13
3 -3 4 -12 1 -19z m-2197 -12 c0 -7 -7 -19 -15 -26 -8 -7 -15 -20 -15 -30 0
-12 -8 -17 -25 -17 -14 0 -25 4 -25 9 0 12 26 38 39 38 5 0 13 9 16 20 7 23
25 27 25 6z m2236 -46 c19 0 24 -5 24 -24 0 -13 6 -28 13 -33 13 -11 67 -26
67 -19 0 14 -13 35 -20 31 -4 -3 -13 2 -20 10 -18 22 3 20 49 -4 20 -10 62
-27 94 -36 57 -17 77 -37 77 -80 0 -20 -30 -27 -47 -9 -8 8 -18 13 -21 10 -2
-3 6 -14 19 -25 19 -15 28 -17 44 -9 19 11 19 10 3 -9 -10 -11 -18 -24 -18
-30 0 -5 -7 -24 -15 -40 -14 -28 -14 -36 1 -78 15 -45 15 -48 -5 -69 -12 -12
-21 -33 -21 -47 0 -46 -44 -149 -63 -149 -3 0 -7 9 -10 20 -3 13 -11 18 -20
14 -12 -4 -17 5 -22 43 -4 26 -13 83 -21 127 -17 97 -17 97 1 90 19 -8 19 5 0
30 -7 10 -18 15 -23 12 -6 -3 -13 11 -17 32 -3 20 -21 69 -39 107 -18 39 -35
90 -39 115 -3 25 -4 39 -1 33 3 -7 17 -13 30 -13z m-2382 -18 c3 -5 -1 -9 -9
-9 -8 0 -12 4 -9 9 3 4 7 8 9 8 2 0 6 -4 9 -8z m1416 -156 c0 -9 -8 -12 -25
-8 -28 5 -24 22 6 22 10 0 19 -6 19 -14z m168 -41 c2 -9 -1 -22 -6 -27 -14
-14 -62 -1 -62 16 0 8 -6 17 -12 19 -8 4 -7 6 3 6 9 1 20 8 23 17 6 15 9 15
29 1 12 -8 24 -22 25 -32z m931 -416 c-16 -10 -23 -4 -14 10 3 6 11 8 17 5 6
-4 5 -9 -3 -15z m-1974 -47 c-3 -3 -11 0 -18 7 -9 10 -8 11 6 5 10 -3 15 -9
12 -12z m1871 -358 c-6 -16 -24 -18 -46 -4 -12 7 -10 14 15 40 l30 32 3 -27
c2 -15 1 -33 -2 -41z m-1353 29 c-7 -2 -21 -2 -30 0 -10 3 -4 5 12 5 17 0 24
-2 18 -5z"/>
<path d="M966 2134 c-4 -9 -4 -19 -1 -22 3 -3 5 0 5 7 0 7 5 9 10 6 6 -3 10 1
10 9 0 21 -16 20 -24 0z"/>
<path d="M603 1763 c-15 -5 -17 -23 -4 -23 5 0 11 7 15 15 3 8 4 15 3 14 -1 0
-8 -3 -14 -6z"/>
<path d="M195 1620 c-3 -5 -1 -10 4 -10 6 0 11 5 11 10 0 6 -2 10 -4 10 -3 0
-8 -4 -11 -10z"/>
<path d="M2710 1281 c0 -6 4 -13 10 -16 6 -3 7 1 4 9 -7 18 -14 21 -14 7z"/>
<path d="M2740 1266 c0 -8 4 -17 9 -20 11 -7 33 18 24 27 -12 12 -33 7 -33 -7z"/>
<path d="M2747 1023 c-4 -3 -7 -11 -7 -17 0 -6 5 -5 12 2 6 6 9 14 7 17 -3 3
-9 2 -12 -2z"/>
<path d="M2743 983 c-7 -2 -13 -12 -12 -21 0 -11 2 -12 6 -4 2 6 13 12 24 12
10 0 19 5 19 10 0 10 -16 12 -37 3z"/>
<path d="M3275 3990 c3 -5 8 -10 11 -10 2 0 4 5 4 10 0 6 -5 10 -11 10 -5 0
-7 -4 -4 -10z"/>
<path d="M3763 3994 c-7 -3 -9 -12 -6 -21 5 -13 1 -15 -22 -9 -19 5 -31 3 -37
-6 -6 -10 -10 -10 -17 2 -9 12 -11 12 -17 -3 -9 -24 0 -31 39 -31 26 -1 32 -5
33 -23 1 -13 -3 -23 -8 -23 -6 0 -8 -7 -5 -15 4 -8 1 -17 -5 -21 -7 -4 -6 -9
3 -15 11 -7 10 -9 -3 -9 -9 0 -19 9 -23 19 -7 22 -51 41 -110 48 -22 2 -45 9
-52 15 -22 18 -87 20 -108 2 -11 -8 -15 -13 -8 -9 7 3 20 1 30 -4 10 -5 52
-19 93 -31 41 -12 85 -26 97 -30 14 -6 25 -5 28 0 4 6 13 4 22 -5 19 -19 58
-16 58 5 0 22 28 48 41 38 8 -5 18 11 33 48 20 54 20 57 4 70 -18 14 -39 16
-60 8z m2 -64 c3 -5 1 -10 -4 -10 -6 0 -11 5 -11 10 0 6 2 10 4 10 3 0 8 -4
11 -10z m25 -29 c0 -5 -9 -7 -20 -4 -11 3 -20 7 -20 9 0 2 9 4 20 4 11 0 20
-4 20 -9z"/>
<path d="M1586 3947 c-11 -8 -17 -19 -15 -24 2 -6 12 0 22 13 20 27 19 30 -7
11z"/>
<path d="M1056 3938 c-3 -7 -7 -49 -10 -93 -3 -44 -9 -116 -12 -161 l-6 -80
79 -23 c98 -28 342 -108 492 -161 62 -22 119 -40 127 -40 7 0 16 16 20 38 3
20 17 95 31 166 20 106 22 131 11 142 -7 7 -53 24 -103 39 -49 15 -110 34
-135 42 -25 8 -103 33 -175 55 -321 98 -313 96 -319 76z m92 -57 c2 -6 9 -8
16 -5 15 6 116 -21 156 -41 31 -16 83 -31 133 -40 20 -3 37 -10 37 -14 0 -5
11 -8 23 -8 13 0 39 -7 58 -16 19 -8 58 -21 87 -27 28 -7 55 -16 58 -21 3 -5
14 -9 24 -9 27 0 33 -16 20 -55 -11 -35 -23 -44 -34 -26 -4 5 -25 12 -49 16
-23 4 -53 13 -67 20 -14 7 -42 16 -63 20 -20 4 -37 12 -37 17 0 6 -7 7 -15 4
-15 -5 -120 24 -157 45 -10 5 -25 9 -34 9 -11 0 -14 5 -10 17 4 9 1 20 -6 25
-19 12 -28 10 -28 -7 0 -15 -3 -15 -66 -1 -12 2 -30 9 -40 14 -11 5 -32 14
-49 19 -23 6 -31 15 -33 37 -6 47 2 56 40 45 18 -5 34 -13 36 -18z m-8 -101
c3 -3 13 -6 24 -8 10 -2 30 -8 45 -14 14 -6 29 -10 34 -10 4 1 24 -5 45 -14
20 -10 40 -16 44 -16 4 1 22 -5 41 -13 19 -8 37 -12 40 -9 3 3 24 -4 48 -15
23 -12 48 -21 55 -21 16 0 162 -48 202 -66 27 -13 33 -20 28 -37 -3 -12 -6
-28 -6 -34 0 -15 -36 -17 -45 -3 -4 6 -11 8 -16 5 -5 -4 -12 1 -15 10 -5 12
-9 13 -14 5 -4 -7 -13 -9 -19 -5 -9 5 -9 10 -1 20 9 10 6 15 -12 20 -13 5 -24
3 -26 -4 -6 -17 -45 -13 -96 9 -25 10 -46 17 -46 14 0 -2 -13 2 -30 11 -37 19
-50 19 -50 -1 0 -18 25 -46 34 -37 3 3 23 -1 43 -10 21 -8 46 -18 55 -21 11
-3 15 -11 11 -21 -4 -12 -12 -15 -27 -10 -58 18 -94 27 -121 32 -16 2 -52 15
-80 28 -27 13 -77 32 -110 41 -33 10 -62 18 -65 19 -3 1 -17 5 -32 9 -21 6
-28 15 -28 32 0 27 21 32 39 10 7 -8 42 -22 79 -32 37 -9 72 -21 77 -25 13
-10 74 -9 80 2 3 4 2 15 -1 24 -5 12 -9 13 -14 5 -6 -9 -16 -9 -44 1 -20 7
-36 17 -36 21 0 4 -8 7 -17 5 -10 -1 -48 7 -84 18 l-67 19 0 40 c-1 22 1 43 4
47 4 7 63 -10 74 -21z m477 -280 c36 -11 62 -35 50 -47 -10 -9 -147 42 -147
55 0 15 28 13 97 -8z"/>
<path d="M3340 3881 c0 -5 9 -7 20 -4 11 3 20 7 20 9 0 2 -9 4 -20 4 -11 0
-20 -4 -20 -9z"/>
<path d="M1810 3849 c0 -11 5 -17 10 -14 6 3 10 13 10 21 0 8 -4 14 -10 14 -5
0 -10 -9 -10 -21z"/>
<path d="M3340 3793 c-26 -80 -38 -187 -21 -197 6 -4 11 -2 11 3 0 16 36 13
49 -3 7 -8 28 -17 49 -20 70 -13 89 -25 88 -56 -1 -15 -4 -26 -9 -23 -15 9
-38 -27 -39 -62 -1 -36 16 -60 36 -48 5 4 6 1 1 -7 -5 -8 -3 -11 6 -8 8 3 14
18 14 36 0 24 4 32 18 32 12 0 16 -4 11 -12 -5 -9 -4 -10 4 -3 17 16 44 85 32
85 -5 0 -10 5 -10 10 0 6 6 10 13 10 13 0 97 191 97 221 0 11 -14 20 -44 28
-24 6 -52 14 -62 18 -18 6 -18 5 1 -16 14 -17 20 -37 19 -72 0 -41 -5 -54 -32
-80 -43 -42 -92 -49 -137 -18 -34 23 -45 51 -43 104 2 35 37 73 81 88 l42 14
-71 22 c-39 11 -73 21 -76 21 -3 0 -15 -30 -28 -67z"/>
<path d="M3510 3841 c8 -5 33 -12 55 -15 l40 -6 -45 15 c-50 16 -73 19 -50 6z"/>
<path d="M3747 3787 c-11 -29 -9 -43 4 -30 6 6 9 19 7 29 -3 18 -4 18 -11 1z"/>
<path d="M3714 3708 c-20 -31 -34 -61 -34 -74 0 -8 -5 -14 -12 -14 -6 0 -9 -3
-5 -6 3 -4 -2 -23 -13 -43 -11 -22 -15 -43 -10 -50 10 -17 17 -5 60 107 29 75
36 114 14 80z"/>
<path d="M3906 3450 c-155 -340 -286 -604 -313 -632 -15 -16 -23 -28 -17 -28
5 0 2 -4 -6 -10 -20 -12 -12 -18 64 -46 l66 -24 80 160 c44 88 112 228 150
311 l70 152 -2 156 -3 156 -89 -195z"/>
<path d="M2430 3541 c0 -5 10 -13 23 -17 12 -4 55 -22 95 -41 40 -20 76 -33
79 -29 25 24 -90 96 -154 96 -24 0 -43 -4 -43 -9z"/>
<path d="M3620 3485 c0 -8 -4 -15 -10 -15 -5 0 -10 -9 -10 -20 0 -11 -7 -37
-15 -57 -27 -63 -8 -47 24 21 33 70 37 86 21 86 -5 0 -10 -7 -10 -15z"/>
<path d="M2836 3366 c3 -8 35 -26 70 -40 76 -31 75 -31 67 -10 -7 18 -97 64
-125 64 -11 0 -15 -5 -12 -14z"/>
<path d="M3466 3372 c-3 -5 1 -9 9 -9 8 0 15 4 15 9 0 4 -4 8 -9 8 -6 0 -12
-4 -15 -8z"/>
<path d="M1180 3276 c0 -7 9 -21 20 -31 41 -37 143 -10 111 29 -16 19 -131 21
-131 2z m60 -12 c0 -2 -7 -4 -15 -4 -8 0 -15 4 -15 10 0 5 7 7 15 4 8 -4 15
-8 15 -10z"/>
<path d="M2360 3276 c0 -3 9 -10 20 -16 11 -6 20 -8 20 -6 0 3 -9 10 -20 16
-11 6 -20 8 -20 6z"/>
<path d="M501 3211 c-12 -16 -21 -41 -21 -55 0 -19 -10 -31 -40 -48 -22 -13
-40 -26 -40 -30 0 -13 10 -9 46 18 31 24 34 25 39 8 10 -33 30 -67 40 -71 6
-2 11 38 13 102 4 113 -2 125 -37 76z"/>
<path d="M2440 3230 c8 -5 22 -9 30 -9 10 0 8 3 -5 9 -27 12 -43 12 -25 0z"/>
<path d="M2985 3160 c-3 -5 -1 -10 4 -10 6 0 11 5 11 10 0 6 -2 10 -4 10 -3 0
-8 -4 -11 -10z"/>
<path d="M2739 3111 c13 -12 28 -21 34 -21 12 0 11 0 -28 24 l-30 17 24 -20z"/>
<path d="M3196 3073 c-6 -14 -5 -15 5 -6 7 7 10 15 7 18 -3 3 -9 -2 -12 -12z"/>
<path d="M3225 3071 c-3 -5 -1 -12 4 -15 5 -3 11 1 15 9 6 16 -9 21 -19 6z"/>
<path d="M651 2990 c-2 -30 -4 -65 -7 -77 -3 -17 0 -21 12 -16 8 3 13 12 10
19 -3 8 -2 22 2 33 9 24 27 6 27 -26 0 -38 20 -30 23 9 3 32 -1 39 -27 52 -16
9 -32 26 -34 38 -2 13 -5 -2 -6 -32z"/>
<path d="M2370 2981 c0 -12 6 -22 13 -23 6 0 17 -2 22 -2 6 -1 16 -5 23 -9 6
-5 12 -4 12 1 0 6 -7 12 -15 16 -8 3 -14 11 -13 18 2 7 -7 14 -19 16 -18 3
-23 -1 -23 -17z"/>
<path d="M925 2895 l-80 -11 62 -5 c33 -2 59 -1 56 4 -2 4 8 7 24 7 22 0 25
-2 13 -10 -12 -7 -8 -10 15 -10 23 0 27 3 15 10 -12 8 -11 10 8 10 12 0 22 5
22 10 0 12 -29 11 -135 -5z"/>
<path d="M2580 2895 c-11 -13 -8 -15 18 -15 34 0 50 15 26 24 -23 9 -30 8 -44
-9z"/>
<path d="M928 2863 c7 -3 16 -2 19 1 4 3 -2 6 -13 5 -11 0 -14 -3 -6 -6z"/>
<path d="M87 2722 c-3 -4 -3 -19 0 -34 4 -23 16 -31 73 -54 72 -28 100 -27
100 4 0 31 -23 49 -92 71 -76 24 -75 24 -81 13z"/>
<path d="M302 2721 c4 -13 18 -16 19 -4 0 4 -5 9 -11 12 -7 2 -11 -2 -8 -8z"/>
<path d="M1055 2680 c-3 -5 1 -10 9 -10 9 0 16 -5 16 -10 0 -6 -6 -10 -13 -8
-29 7 -13 -18 18 -29 31 -11 36 -10 45 8 19 34 3 59 -35 59 -19 0 -37 -4 -40
-10z"/>
<path d="M23 2615 c0 -14 5 -25 13 -25 22 0 24 16 5 34 -18 16 -18 16 -18 -9z"/>
<path d="M184 2162 c-6 -4 -13 -15 -17 -25 -5 -14 -11 -16 -27 -7 -23 12 -27
-2 -5 -20 12 -10 20 -8 44 12 38 29 42 66 5 40z"/>
<path d="M430 2111 c0 -10 42 -23 49 -15 7 6 -20 24 -36 24 -7 0 -13 -4 -13
-9z"/>
<path d="M220 2096 c0 -2 7 -6 15 -10 8 -3 15 -1 15 4 0 6 -7 10 -15 10 -8 0
-15 -2 -15 -4z"/>
<path d="M174 2079 c-4 -7 -9 -36 -10 -66 -2 -39 1 -53 10 -53 13 0 24 36 29
94 2 30 -16 46 -29 25z"/>
<path d="M375 2081 c-6 -11 9 -23 19 -14 9 9 7 23 -3 23 -6 0 -12 -4 -16 -9z"/>
<path d="M571 2071 c-10 -18 -6 -31 11 -31 4 0 8 9 8 19 0 11 6 22 13 24 7 3
5 6 -5 6 -10 1 -22 -7 -27 -18z"/>
<path d="M320 2070 c1 -9 27 -40 34 -40 3 0 6 10 6 23 0 16 -6 23 -20 23 -11
0 -20 -3 -20 -6z"/>
<path d="M234 2043 c-4 -18 -10 -33 -15 -33 -5 0 -9 -3 -9 -7 0 -7 13 -8 78
-4 21 1 10 45 -13 50 -11 2 -23 8 -27 15 -4 6 -10 -3 -14 -21z"/>
<path d="M470 2059 c0 -5 5 -7 10 -4 6 3 10 8 10 11 0 2 -4 4 -10 4 -5 0 -10
-5 -10 -11z"/>
<path d="M80 2035 c0 -18 5 -25 20 -25 13 0 20 -7 20 -19 0 -10 7 -21 15 -25
10 -4 15 1 15 14 0 11 -4 20 -9 20 -5 0 -14 14 -20 30 -12 37 -41 40 -41 5z"/>
<path d="M435 1970 c-3 -5 -2 -10 4 -10 5 0 13 5 16 10 3 6 2 10 -4 10 -5 0
-13 -4 -16 -10z"/>
<path d="M64 1953 c-9 -15 -15 -16 -37 -6 -27 12 -27 12 -27 -28 0 -22 4 -38
9 -34 5 3 12 1 16 -5 3 -5 1 -10 -4 -10 -17 0 -13 -17 5 -24 10 -4 13 -2 8 7
-4 6 -3 9 1 4 5 -4 17 0 27 10 24 22 23 12 -2 -17 -22 -25 -28 -52 -8 -32 17
17 28 15 28 -4 0 -8 4 -13 9 -10 5 3 7 15 4 25 -3 12 5 33 21 54 22 29 39 83
20 64 -4 -3 -16 0 -28 8 -26 19 -29 19 -42 -2z"/>
<path d="M310 1940 c0 -5 5 -10 10 -10 6 0 10 5 10 10 0 6 -4 10 -10 10 -5 0
-10 -4 -10 -10z"/>
<path d="M0 1811 c0 -6 5 -13 10 -16 5 -3 10 1 10 9 0 9 -4 16 -10 16 -5 0
-10 -4 -10 -9z"/>
<path d="M42 1778 c5 -15 28 -18 29 -3 0 6 -7 12 -17 13 -10 3 -15 -1 -12 -10z"/>
<path d="M68 1743 c7 -3 16 -2 19 1 4 3 -2 6 -13 5 -11 0 -14 -3 -6 -6z"/>
<path d="M37 1523 c-8 -13 3 -53 14 -53 5 0 9 5 9 11 0 7 8 18 18 26 14 12 15
14 1 10 -9 -3 -21 -1 -27 5 -6 6 -12 6 -15 1z"/>
<path d="M2 1489 c2 -7 10 -15 17 -17 8 -3 12 1 9 9 -2 7 -10 15 -17 17 -8 3
-12 -1 -9 -9z"/>
<path d="M25 1450 c3 -5 12 -7 20 -3 21 7 19 13 -6 13 -11 0 -18 -4 -14 -10z"/>
<path d="M10 1308 c0 -9 -1 -9 53 -13 25 -3 37 0 37 9 0 8 -15 12 -45 12 -25
-1 -45 -4 -45 -8z"/>
<path d="M120 1300 c0 -5 5 -10 11 -10 5 0 7 5 4 10 -3 6 -8 10 -11 10 -2 0
-4 -4 -4 -10z"/>
<path d="M775 557 c-4 -10 -5 -21 -1 -24 10 -10 18 4 13 24 -4 17 -4 17 -12 0z"/>
<path d="M740 550 c0 -5 5 -10 10 -10 6 0 10 5 10 10 0 6 -4 10 -10 10 -5 0
-10 -4 -10 -10z"/>
<path d="M675 530 c-3 -5 0 -10 7 -10 8 0 6 -5 -5 -11 -23 -13 -13 -29 19 -29
13 0 24 -4 24 -10 0 -5 -3 -9 -7 -7 -5 1 -8 -2 -8 -8 0 -5 7 -9 16 -8 10 1 19
-6 22 -17 6 -24 -1 -25 -27 -5 -23 17 -36 19 -36 5 0 -5 5 -10 10 -10 14 0 50
-38 50 -52 0 -9 2 -10 8 -2 8 14 62 16 62 3 0 -5 -7 -9 -17 -9 -9 0 -14 -3
-10 -6 3 -3 23 -3 44 1 30 5 39 11 40 28 3 41 -49 83 -81 65 -15 -9 -17 -7
-12 10 4 11 0 24 -9 32 -10 9 -15 9 -15 1 0 -8 -6 -7 -20 1 -12 8 -18 19 -15
28 4 8 3 11 -1 7 -4 -4 -13 -2 -20 4 -8 7 -14 7 -19 -1z"/>
<path d="M1501 492 c-17 -33 -25 -120 -11 -136 6 -9 9 -20 5 -25 -3 -7 0 -8 9
-5 9 3 17 2 17 -2 7 -51 6 -65 -3 -70 -6 -4 -19 3 -28 16 -10 13 -22 20 -29
16 -6 -4 -11 -2 -11 3 0 6 -13 11 -29 11 -17 0 -32 4 -35 8 -3 5 -18 7 -34 4
-22 -3 -34 2 -47 20 l-17 23 6 -28 c9 -37 0 -50 -24 -37 -27 14 -33 -3 -10
-27 10 -12 16 -24 13 -27 -4 -3 3 -6 14 -6 12 0 24 6 26 13 4 9 8 8 16 -3 5
-8 13 -11 18 -7 4 5 -3 17 -17 27 -14 10 -21 22 -17 26 4 4 13 2 19 -4 7 -7
20 -12 30 -12 10 0 21 -7 24 -15 7 -16 34 -21 34 -5 0 5 -9 14 -20 20 -11 6
-20 15 -20 20 0 16 36 -10 52 -38 13 -21 17 -23 29 -9 12 13 16 13 29 1 14
-11 21 -11 50 4 19 9 36 24 36 32 1 8 3 18 4 23 1 4 3 12 4 17 0 6 7 14 14 19
10 6 6 16 -17 40 -29 31 -57 94 -53 119 4 19 -16 14 -27 -6z m57 -187 c-3 -3
-9 2 -12 12 -6 14 -5 15 5 6 7 -7 10 -15 7 -18z"/>
<path d="M440 480 c0 -5 7 -10 16 -10 8 0 12 5 9 10 -3 6 -10 10 -16 10 -5 0
-9 -4 -9 -10z"/>
<path d="M460 450 c-13 -8 -12 -10 3 -10 9 0 17 5 17 10 0 12 -1 12 -20 0z"/>
<path d="M2512 304 c-6 -11 -10 -29 -9 -39 1 -14 -3 -19 -15 -17 -30 5 -19
-40 11 -46 8 -2 11 3 8 12 -4 9 -2 18 4 22 17 10 30 54 20 71 -8 14 -10 14
-19 -3z"/>
<path d="M1127 283 c-4 -3 -7 -11 -7 -17 0 -6 5 -5 12 2 6 6 9 14 7 17 -3 3
-9 2 -12 -2z"/>
<path d="M2430 240 c0 -5 7 -10 16 -10 8 0 12 5 9 10 -3 6 -10 10 -16 10 -5 0
-9 -4 -9 -10z"/>
<path d="M1387 224 c-4 -4 -4 -10 -1 -15 6 -10 34 0 34 12 0 10 -24 12 -33 3z"/>
<path d="M1276 212 c-3 -6 0 -17 8 -24 10 -10 11 -19 4 -32 -5 -9 -7 -24 -4
-32 3 -8 -1 -14 -9 -14 -8 0 -15 -5 -15 -10 0 -6 6 -9 13 -8 6 2 11 -3 9 -10
-1 -8 3 -11 10 -8 7 3 21 9 31 12 9 4 17 12 17 19 0 7 8 16 18 20 16 7 15 8
-3 15 -21 8 -28 49 -10 62 17 12 -5 23 -24 11 -13 -8 -22 -8 -29 -1 -6 6 -12
6 -16 0z"/>
<path d="M1675 210 c-3 -5 -17 -10 -31 -10 -19 0 -24 -5 -24 -24 0 -16 7 -27
21 -31 25 -8 30 -4 31 26 1 13 6 30 11 37 5 6 7 12 4 12 -3 0 -9 -4 -12 -10z"/>
<path d="M190 155 c0 -16 16 -20 24 -6 3 5 -1 11 -9 15 -9 3 -15 0 -15 -9z"/>
<path d="M297 149 c7 -7 15 -10 18 -7 3 3 -2 9 -12 12 -14 6 -15 5 -6 -5z"/>
<path d="M2316 145 c-7 -20 6 -39 22 -34 7 3 6 13 -2 28 -12 21 -14 22 -20 6z"/>
<path d="M188 104 c-24 -26 -55 -60 -70 -75 l-26 -29 89 0 c88 0 100 4 77 29
-11 10 -10 15 4 25 16 12 16 14 0 30 -16 16 -15 17 12 10 20 -5 27 -3 22 4 -3
6 -1 12 6 15 7 2 3 2 -9 0 -17 -2 -21 1 -17 12 4 8 2 15 -4 15 -6 0 -17 3 -26
6 -10 4 -30 -11 -58 -42z m7 -84 c-3 -5 -11 -10 -16 -10 -6 0 -7 5 -4 10 3 6
11 10 16 10 6 0 7 -4 4 -10z"/>
<path d="M1306 65 c-3 -8 -9 -14 -13 -13 -8 3 -53 -37 -53 -47 0 -3 22 -5 49
-5 53 0 66 13 55 56 -7 27 -29 32 -38 9z"/>
<path d="M1757 63 c-3 -5 6 -8 19 -8 13 0 24 3 24 8 0 4 -9 7 -19 7 -11 0 -22
-3 -24 -7z"/>
<path d="M1780 20 c0 -5 5 -10 11 -10 5 0 7 5 4 10 -3 6 -8 10 -11 10 -2 0 -4
-4 -4 -10z"/>
</g>
</svg>
